<mxfile host="app.diagrams.net" modified="2023-12-10T04:34:46.928Z" agent="Mozilla/5.0 (Windows NT 10.0; Win64; x64) AppleWebKit/537.36 (KHTML, like Gecko) Chrome/120.0.0.0 Safari/537.36" etag="QKaxtjb910nq1n6OMcIO" version="22.1.7" type="github">
  <diagram name="第 1 页" id="yxNlmLwIOpBy0RJXwJFW">
    <mxGraphModel dx="928" dy="677" grid="1" gridSize="10" guides="1" tooltips="1" connect="1" arrows="1" fold="1" page="1" pageScale="1" pageWidth="827" pageHeight="1169" math="0" shadow="0">
      <root>
        <mxCell id="0" />
        <mxCell id="1" parent="0" />
        <mxCell id="mYs_dOxZz7pU8FiAXEw9-1" value="CPU" style="rounded=0;whiteSpace=wrap;html=1;" vertex="1" parent="1">
          <mxGeometry x="346" y="370" width="90" height="60" as="geometry" />
        </mxCell>
        <mxCell id="mYs_dOxZz7pU8FiAXEw9-14" value="" style="endArrow=none;html=1;rounded=0;" edge="1" parent="1">
          <mxGeometry width="50" height="50" relative="1" as="geometry">
            <mxPoint x="70" y="650" as="sourcePoint" />
            <mxPoint x="780" y="650" as="targetPoint" />
          </mxGeometry>
        </mxCell>
        <mxCell id="mYs_dOxZz7pU8FiAXEw9-15" value="" style="endArrow=none;html=1;rounded=0;" edge="1" parent="1">
          <mxGeometry width="50" height="50" relative="1" as="geometry">
            <mxPoint x="70" y="700" as="sourcePoint" />
            <mxPoint x="780" y="700" as="targetPoint" />
          </mxGeometry>
        </mxCell>
        <mxCell id="mYs_dOxZz7pU8FiAXEw9-16" value="" style="group" vertex="1" connectable="0" parent="1">
          <mxGeometry x="170" y="480" width="560" height="130" as="geometry" />
        </mxCell>
        <mxCell id="mYs_dOxZz7pU8FiAXEw9-3" value="" style="rounded=0;whiteSpace=wrap;html=1;" vertex="1" parent="mYs_dOxZz7pU8FiAXEw9-16">
          <mxGeometry width="405" height="130" as="geometry" />
        </mxCell>
        <mxCell id="mYs_dOxZz7pU8FiAXEw9-4" value="" style="rounded=0;whiteSpace=wrap;html=1;" vertex="1" parent="mYs_dOxZz7pU8FiAXEw9-16">
          <mxGeometry x="20" y="20" width="170" height="100" as="geometry" />
        </mxCell>
        <mxCell id="mYs_dOxZz7pU8FiAXEw9-5" value="PCI Host bridge" style="text;html=1;strokeColor=none;fillColor=none;align=center;verticalAlign=middle;whiteSpace=wrap;rounded=0;" vertex="1" parent="mYs_dOxZz7pU8FiAXEw9-16">
          <mxGeometry x="90" y="15" width="110" height="30" as="geometry" />
        </mxCell>
        <mxCell id="mYs_dOxZz7pU8FiAXEw9-6" value="IDSEL1" style="text;html=1;strokeColor=none;fillColor=none;align=center;verticalAlign=middle;whiteSpace=wrap;rounded=0;" vertex="1" parent="mYs_dOxZz7pU8FiAXEw9-16">
          <mxGeometry x="20" y="100" width="60" height="20" as="geometry" />
        </mxCell>
        <mxCell id="mYs_dOxZz7pU8FiAXEw9-7" value="IDSEL2" style="text;html=1;strokeColor=none;fillColor=none;align=center;verticalAlign=middle;whiteSpace=wrap;rounded=0;" vertex="1" parent="mYs_dOxZz7pU8FiAXEw9-16">
          <mxGeometry x="130" y="100" width="60" height="20" as="geometry" />
        </mxCell>
        <mxCell id="mYs_dOxZz7pU8FiAXEw9-8" value="CONFIG_ADDRESS" style="rounded=0;whiteSpace=wrap;html=1;" vertex="1" parent="mYs_dOxZz7pU8FiAXEw9-16">
          <mxGeometry x="45" y="40" width="120" height="28" as="geometry" />
        </mxCell>
        <mxCell id="mYs_dOxZz7pU8FiAXEw9-9" value="CONFIG_DATA" style="rounded=0;whiteSpace=wrap;html=1;" vertex="1" parent="mYs_dOxZz7pU8FiAXEw9-16">
          <mxGeometry x="45" y="68" width="120" height="28" as="geometry" />
        </mxCell>
        <mxCell id="mYs_dOxZz7pU8FiAXEw9-10" value="Memory&lt;br&gt;controller" style="rounded=0;whiteSpace=wrap;html=1;" vertex="1" parent="mYs_dOxZz7pU8FiAXEw9-16">
          <mxGeometry x="250" y="45" width="120" height="60" as="geometry" />
        </mxCell>
        <mxCell id="mYs_dOxZz7pU8FiAXEw9-11" value="Host bridge" style="text;html=1;strokeColor=none;fillColor=none;align=center;verticalAlign=middle;whiteSpace=wrap;rounded=0;" vertex="1" parent="mYs_dOxZz7pU8FiAXEw9-16">
          <mxGeometry x="260" width="110" height="30" as="geometry" />
        </mxCell>
        <mxCell id="mYs_dOxZz7pU8FiAXEw9-12" value="" style="shape=flexArrow;endArrow=classic;startArrow=classic;html=1;rounded=0;" edge="1" parent="mYs_dOxZz7pU8FiAXEw9-16">
          <mxGeometry width="100" height="100" relative="1" as="geometry">
            <mxPoint x="370" y="74.5" as="sourcePoint" />
            <mxPoint x="440" y="75" as="targetPoint" />
          </mxGeometry>
        </mxCell>
        <mxCell id="mYs_dOxZz7pU8FiAXEw9-13" value="RAM" style="rounded=0;whiteSpace=wrap;html=1;" vertex="1" parent="mYs_dOxZz7pU8FiAXEw9-16">
          <mxGeometry x="440" y="45" width="120" height="60" as="geometry" />
        </mxCell>
        <mxCell id="mYs_dOxZz7pU8FiAXEw9-17" value="" style="shape=flexArrow;endArrow=classic;startArrow=classic;html=1;rounded=0;entryX=0;entryY=0.25;entryDx=0;entryDy=0;startWidth=14;startSize=4.11;endWidth=14;endSize=4.11;" edge="1" parent="mYs_dOxZz7pU8FiAXEw9-16">
          <mxGeometry width="100" height="100" relative="1" as="geometry">
            <mxPoint x="220" as="sourcePoint" />
            <mxPoint x="220" y="-50" as="targetPoint" />
          </mxGeometry>
        </mxCell>
        <mxCell id="mYs_dOxZz7pU8FiAXEw9-19" value="" style="shape=flexArrow;endArrow=classic;startArrow=classic;html=1;rounded=0;entryX=0;entryY=0.25;entryDx=0;entryDy=0;startWidth=14;startSize=4.11;endWidth=14;endSize=4.11;" edge="1" parent="mYs_dOxZz7pU8FiAXEw9-16">
          <mxGeometry width="100" height="100" relative="1" as="geometry">
            <mxPoint x="104.5" y="170" as="sourcePoint" />
            <mxPoint x="104.5" y="120" as="targetPoint" />
          </mxGeometry>
        </mxCell>
        <mxCell id="mYs_dOxZz7pU8FiAXEw9-22" value="" style="group" vertex="1" connectable="0" parent="1">
          <mxGeometry x="150" y="700" width="120" height="100" as="geometry" />
        </mxCell>
        <mxCell id="mYs_dOxZz7pU8FiAXEw9-20" value="PCI Device" style="rounded=0;whiteSpace=wrap;html=1;" vertex="1" parent="mYs_dOxZz7pU8FiAXEw9-22">
          <mxGeometry y="40" width="120" height="60" as="geometry" />
        </mxCell>
        <mxCell id="mYs_dOxZz7pU8FiAXEw9-21" value="" style="shape=flexArrow;endArrow=classic;startArrow=classic;html=1;rounded=0;entryX=0;entryY=0.25;entryDx=0;entryDy=0;startWidth=14;startSize=4.11;endWidth=14;endSize=4.11;" edge="1" parent="mYs_dOxZz7pU8FiAXEw9-22">
          <mxGeometry width="100" height="100" relative="1" as="geometry">
            <mxPoint x="30" y="40" as="sourcePoint" />
            <mxPoint x="30" as="targetPoint" />
          </mxGeometry>
        </mxCell>
        <mxCell id="mYs_dOxZz7pU8FiAXEw9-30" value="" style="endArrow=none;html=1;rounded=0;" edge="1" parent="mYs_dOxZz7pU8FiAXEw9-22">
          <mxGeometry width="50" height="50" relative="1" as="geometry">
            <mxPoint x="67" y="40" as="sourcePoint" />
            <mxPoint x="67" y="-100" as="targetPoint" />
          </mxGeometry>
        </mxCell>
        <mxCell id="mYs_dOxZz7pU8FiAXEw9-23" value="" style="group" vertex="1" connectable="0" parent="1">
          <mxGeometry x="360" y="700" width="120" height="100" as="geometry" />
        </mxCell>
        <mxCell id="mYs_dOxZz7pU8FiAXEw9-24" value="PCI-to-PCI&lt;br&gt;Bridge" style="rounded=0;whiteSpace=wrap;html=1;" vertex="1" parent="mYs_dOxZz7pU8FiAXEw9-23">
          <mxGeometry y="40" width="120" height="60" as="geometry" />
        </mxCell>
        <mxCell id="mYs_dOxZz7pU8FiAXEw9-25" value="" style="shape=flexArrow;endArrow=classic;startArrow=classic;html=1;rounded=0;entryX=0;entryY=0.25;entryDx=0;entryDy=0;startWidth=14;startSize=4.11;endWidth=14;endSize=4.11;" edge="1" parent="mYs_dOxZz7pU8FiAXEw9-23">
          <mxGeometry width="100" height="100" relative="1" as="geometry">
            <mxPoint x="30" y="40" as="sourcePoint" />
            <mxPoint x="30" as="targetPoint" />
          </mxGeometry>
        </mxCell>
        <mxCell id="mYs_dOxZz7pU8FiAXEw9-26" value="" style="group" vertex="1" connectable="0" parent="1">
          <mxGeometry x="570" y="700" width="120" height="100" as="geometry" />
        </mxCell>
        <mxCell id="mYs_dOxZz7pU8FiAXEw9-27" value="PCI Device" style="rounded=0;whiteSpace=wrap;html=1;" vertex="1" parent="mYs_dOxZz7pU8FiAXEw9-26">
          <mxGeometry y="40" width="120" height="60" as="geometry" />
        </mxCell>
        <mxCell id="mYs_dOxZz7pU8FiAXEw9-28" value="" style="shape=flexArrow;endArrow=classic;startArrow=classic;html=1;rounded=0;entryX=0;entryY=0.25;entryDx=0;entryDy=0;startWidth=14;startSize=4.11;endWidth=14;endSize=4.11;" edge="1" parent="mYs_dOxZz7pU8FiAXEw9-26">
          <mxGeometry width="100" height="100" relative="1" as="geometry">
            <mxPoint x="30" y="40" as="sourcePoint" />
            <mxPoint x="30" as="targetPoint" />
          </mxGeometry>
        </mxCell>
        <mxCell id="mYs_dOxZz7pU8FiAXEw9-29" value="pci bus" style="text;html=1;strokeColor=none;fillColor=none;align=center;verticalAlign=middle;whiteSpace=wrap;rounded=0;" vertex="1" parent="1">
          <mxGeometry x="414" y="660" width="60" height="30" as="geometry" />
        </mxCell>
        <mxCell id="mYs_dOxZz7pU8FiAXEw9-31" value="" style="endArrow=none;html=1;rounded=0;edgeStyle=orthogonalEdgeStyle;entryX=0.5;entryY=1;entryDx=0;entryDy=0;" edge="1" parent="1" target="mYs_dOxZz7pU8FiAXEw9-7">
          <mxGeometry width="50" height="50" relative="1" as="geometry">
            <mxPoint x="660" y="740" as="sourcePoint" />
            <mxPoint x="330" y="605" as="targetPoint" />
            <Array as="points">
              <mxPoint x="660" y="640" />
              <mxPoint x="330" y="640" />
            </Array>
          </mxGeometry>
        </mxCell>
      </root>
    </mxGraphModel>
  </diagram>
</mxfile>
